PathFileType	4	(X/Y/Z)	Patient4_TMGait_0pt8_01_left_11.trc.trc
DataRate	CameraRate	NumFrames	NumMarkers	Units	OrigDataRate	OrigDataStartFrame	OrigNumFrames
86.419753086420	86.419753086420	4	33	mm	86.419753086420	106	       141
Frame#	Time	Sacral			L.Shoulder			Chest			R.Shoulder			Neck			R.ASIS			L.ASIS			R.Thigh.Superior			R.Thigh.Lateral			R.Thigh.Inferior			R.Patella			L.Thigh.Superior			L.Thigh.Lateral			L.Thigh.Inferior			L.Patella			L.Shank.Superior			L.Shank.Lateral			L.Shank.Inferior			R.Shank.Superior			R.Shank.Lateral			R.Shank.Inferior			R.Heel			R.Midfoot.Superior			R.Midfoot.Lateral			R.Toe			L.Heel			L.Midfoot.Lateral			L.Midfoot.Superior			L.Toe			L.Elbow			L.Wrist			R.Elbow			R.Wrist			
		X1	Y1	Z1	X2	Y2	Z2	X3	Y3	Z3	X4	Y4	Z4	X5	Y5	Z5	X6	Y6	Z6	X7	Y7	Z7	X8	Y8	Z8	X9	Y9	Z9	X10	Y10	Z10	X11	Y11	Z11	X12	Y12	Z12	X13	Y13	Z13	X14	Y14	Z14	X15	Y15	Z15	X16	Y16	Z16	X17	Y17	Z17	X18	Y18	Z18	X19	Y19	Z19	X20	Y20	Z20	X21	Y21	Z21	X22	Y22	Z22	X23	Y23	Z23	X24	Y24	Z24	X25	Y25	Z25	X26	Y26	Z26	X27	Y27	Z27	X28	Y28	Z28	X29	Y29	Z29	X30	Y30	Z30	X31	Y31	Z31	X32	Y32	Z32	X33	Y33	Z33	

106	12.695000000000	844.913048399734	1014.288308377847	531.323224833315	1025.010417524447	1433.309359591787	336.118514379877	1138.016611983570	1360.222162856022	489.407416758552	1072.816157153201	1436.200027279930	670.092231232370	1027.537948794523	1496.158606131129	493.053594512626	1075.535017867002	945.595346135525	638.098406892326	1046.900210502405	959.939151468961	363.732015453772	1099.434438412016	738.994096335866	611.407252141626	1008.418970903372	635.848085219935	670.132807687098	1079.911449339815	578.191892685880	590.128825232362	1072.208976114223	492.196781377635	594.274021283779	1133.716464920330	787.991175854643	388.960076861591	1092.718859168463	659.809177065800	310.014489478229	1202.155203200970	601.724840012208	364.347640569993	1220.612729344174	514.919786545414	355.852583146882	1162.298435440079	442.677847287459	348.707377430485	1026.962136760031	380.818794580384	304.386921914583	1038.111697822380	249.660521973416	354.174308666934	1043.037035983837	405.361924787765	599.986147805268	968.023755045302	302.930244873767	658.812094981573	1008.922824870795	207.585503893380	594.393999761978	870.662092462011	44.763605012198	557.704466613807	1041.515788123726	97.163794381816	599.486194670457	951.715690030633	37.609878562990	635.246520143816	1160.257271776543	41.723012310975	631.423543936227	863.006774833820	152.200989722010	397.736680765534	922.716840539091	122.507938579970	311.747654099360	1026.336203829839	146.364754127064	329.794673243150	1118.910566658511	51.108685998539	289.530131108732	969.014122051331	1077.730693239100	241.591168731145	991.777423775858	819.087452488538	236.177542030643	1111.797199170219	1091.227828841455	794.074978405534	1334.063680203124	964.254321943128	758.083753481531	
107	12.706571428571	844.484254865385	1014.589821457916	532.452411523472	1023.642229157417	1433.253760273744	336.304342975480	1137.605248391256	1360.086345466350	488.804312131240	1073.894485155042	1436.408637474535	669.883725620338	1027.477633003059	1496.174403673817	493.161179500944	1074.930203762628	945.334567045132	637.926367015778	1045.196120195601	960.339945943685	363.594700135522	1095.624236039946	737.956914926324	610.209937166757	1003.702711557820	635.798662718269	670.084733153980	1073.482931850797	577.205902927051	589.576996518283	1064.635735712106	491.624955688865	593.836006979053	1133.297984302466	790.665872409000	389.328263133761	1093.879070023482	661.726793850207	310.203361010242	1203.927979595237	605.175815365024	364.597070560728	1224.377970130490	519.814575615027	356.076263746217	1170.027384314536	445.958778329017	348.447105796007	1039.157549223004	375.806672007208	303.592904760967	1058.980289227294	245.152314333419	352.718522614530	1035.144417837387	405.043512705868	599.703693448056	959.855915240171	302.915489869260	658.760492336730	1000.247369082690	207.443263119520	594.201404454853	861.326521039556	44.727387726942	557.738200092198	1032.222924761954	97.185280807718	599.459298474888	942.361228096186	37.569458246340	635.235400372501	1150.882423981944	41.745316763921	631.462460263496	890.886768753476	135.994887968191	395.761089894628	952.311389565550	110.911617431111	309.618423147077	1054.116752946806	141.452062173984	327.840055270785	1152.828908139097	52.865548033746	287.063674333863	957.529795480183	1079.638760745390	241.598518911210	968.344756108837	820.542797981416	236.272627071806	1123.565473485561	1093.677401790344	793.904290077201	1353.491576588483	983.963028696401	753.450594738165	
108	12.718142857143	844.116026577503	1014.740432306141	533.392997084346	1022.335757409311	1433.112137775829	336.413102921912	1137.236088267902	1359.808696432460	488.102841668588	1074.972236388757	1436.453862243116	669.560470073507	1027.412367232093	1496.026277351666	493.194152999862	1074.404519947124	944.897048971454	637.570705546218	1043.670652899435	960.517952088761	363.304307771762	1091.891120009409	736.806563141094	608.990667748433	999.047730323048	635.656525073578	669.999898156675	1067.127056837976	576.160456445284	589.021722806715	1057.154109185469	490.974467085654	593.433075878572	1132.568076188513	792.589896305527	389.625166114920	1094.416897192873	663.044152332272	310.310701413577	1204.722368363421	607.661441812312	365.036373320529	1227.006086418565	524.006041856324	356.501301076891	1176.829271960689	448.871697066533	348.317957462369	1051.360713882150	370.464353122376	302.525472049512	1079.901252135046	240.948315018677	351.231973957384	1027.274711776141	404.647948436474	599.426566613498	951.690389233090	302.840126013916	658.696923706202	991.537159379855	207.256323722915	594.019433357003	851.978530990336	44.648481492078	557.781004533162	1022.896974442592	97.202753557508	599.443266004083	932.986142799811	37.508295291288	635.220517468334	1141.491998674577	41.797625670066	631.493599669278	919.751091063482	120.333995120320	393.305511025253	982.928007773051	99.974280534661	307.310600566724	1082.313463525843	137.197472591304	326.014275611798	1186.923703027451	55.735073707489	285.295552755097	945.931931996588	1081.948018323212	241.401617912754	945.885876684112	822.907992305359	236.493129275480	1135.022612866702	1096.352879855180	793.452263756601	1371.247374428344	1004.616390810843	748.458918154909	
109	12.729714285714	843.794600582968	1014.730011759569	534.131155043394	1021.092585774333	1432.879460534408	336.443740232851	1136.906819280828	1359.380140192819	487.304548203338	1076.038917833939	1436.320160021301	669.126228100912	1027.335478208605	1495.706205230324	493.155336061088	1073.975891580031	944.284308490806	637.042008696049	1042.344502289920	960.451716590410	362.860920995120	1088.296923190333	735.540985118970	607.815343848594	994.485183622073	635.417135453510	669.884523252283	1060.904524365456	575.055178485996	588.487190088734	1049.824792689154	490.235295731366	593.067420669030	1131.548967030330	793.705471964683	389.848287228744	1094.382135273427	663.736287137715	310.284800207674	1204.578749439353	609.133693607258	365.641673193852	1228.547087203933	527.448373195240	357.111838678733	1182.702523016491	451.405850220974	348.328693678583	1063.566117729671	364.949283693247	301.160720823132	1100.670575101446	237.238440245747	349.787855687641	1019.479112125593	404.163058265225	599.154224800255	943.567885907918	302.703033320600	658.618242171326	982.812203489424	207.014974228358	593.844932157817	842.616799030591	44.531852955229	557.837266957732	1013.535270653960	97.206021190270	599.430245539264	923.592452911843	37.429431331579	635.206005352278	1132.090947268136	41.870250286054	631.517078039551	949.274281730386	105.631638288624	390.414538994114	1014.296631432163	90.007385379716	304.929390953776	1110.654435811571	133.812902764268	324.433536507582	1220.847171905339	59.835397696323	284.488358475020	934.360612986859	1084.631786865155	241.069538345182	924.431924908606	826.014970522421	236.853412949943	1146.161027899026	1099.209170142363	792.725498405926	1387.227817094066	1026.013503596772	743.162920688299	
